<?xml version="1.0" encoding="utf-8"?>
<!DOCTYPE svg PUBLIC "-//W3C//DTD SVG 1.1//EN" "http://www.w3.org/Graphics/SVG/1.1/DTD/svg11.dtd">
<svg version="1.1" id="Icon" xmlns="http://www.w3.org/2000/svg" xmlns:xlink="http://www.w3.org/1999/xlink" x="0px" y="0px"
	 width="50px" height="50px" viewBox="0 0 50 50" enable-background="new 0 0 50 50" xml:space="preserve">
<polygon fill="#b5e61d" points="0,0 50,0 50,50 0,50"/>
<polygon fill="#ffffff" points="7,18 8,18 8,12 9,12 9,9 10,9 10,8 11,8 11,6 13,6 13,5 18,5 18,4 31,4 31,5 36,5 36,6 38,6 
38,8 39,8 39,9 40,9 40,12 41,12 41,21 42,21 42,33 41,33 41,34 40,34 40,39 39,39 39,40 38,40 38,41 36,41 36,43 32,43 32,44 
17,44 17,43 13,43 13,41 11,41 11,40 10,40 10,39 9,39 9,34 8,34 8,28 7,28 7,20"/>
<polygon fill="#000000" points="8,19 9,19 9,13 10,13 10,10 11,10 11,9 12,9 12,7 14,7 14,6 19,6 19,5 30,5 30,6 35,6 35,7 37,7 
37,9 38,9 38,10 39,10 39,13 40,13 40,22 41,22 41,32 40,32 40,33 39,33 39,38 38,38 38,39 37,39 37,40 35,40 35,42 31,42 31,43 
18,43 18,42 14,42 14,40 12,40 12,39 11,39 11,38 10,38 10,33 9,33 9,27 8,27"/>
<polygon fill="#b97a57" points="11,19 12,19 12,16 14,16 14,17 18,17 18,20 17,20 17,35 18,35 18,38 19,38 19,39 18,39 18,38 
15,38 15,37 13,37 13,32 12,32 12,27 11,27"/>
<polygon fill="#b97a57" points="20,20 21,20 21,18 28,18 28,23 29,23 29,33 28,33 28,37 27,37 27,39 21,39 21,35 20,35"/>
<polygon fill="#b97a57" points="31,22 31,17 35,17 35,16 37,16 37,18 38,18 38,30 37,30 37,32 36,32 36,37 34,37 34,38 31,38 
31,39 30,39 30,37 31,37 31,33 32,33 32,22"/>
<polygon fill="#b97a57" points="13,11 15,11 15,10 19,10 19,9 30,9 30,10 34,10 34,11 36,11 36,12 34,12 34,13 31,13 31,14 
18,14 18,13 15,13 15,12 13,12"/>
</svg>
