<?xml version="1.0" encoding="utf-8"?>
<!DOCTYPE svg PUBLIC "-//W3C//DTD SVG 1.1//EN" "http://www.w3.org/Graphics/SVG/1.1/DTD/svg11.dtd">
<svg version="1.1" id="Icon" xmlns="http://www.w3.org/2000/svg" xmlns:xlink="http://www.w3.org/1999/xlink" x="0px" y="0px"
	 width="512px" height="512px" viewBox="0 0 512 512" enable-background="new 0 0 512 512" xml:space="preserve">
<polygon fill="#000000" points="0,0 512,0 512,512 0,512"/>
<polygon points="10,12 501,12 501,500 10,500" style="fill:#000000;stroke:#007bff;stroke-width:5;"/>
<rect x="22" y="208" rx="25" ry="25" width="470" height="100" style="fill:#000000;stroke:#007bff;stroke-width:5;" />
<polygon fill="#007bff" points="38,281 38,226 54,226 54,234 62,234 62,242 70,242 70,249 77,249 77,226 93,226 93,281 77,281 77,273
69,273 69,266 61,266 61,258 54,258 54,281"/>
<polygon fill="#007bff" points="101,281 101,242 109,242 109,233 116,233 116,226 140,226 140,233 148,233 148,242 156,242 156,281
140,281 140,265 117,265 117,281"/>
<polygon fill="#000000" points="117,257 117,242 125,242 125,234 132,234 132,242 140,242 140,257"/>
<polygon fill="#007bff" points="164,281 164,226 212,226 212,234 219,234 219,250 212,250 212,257 219,257 219,273 212,273 212,281 "/>
<polygon fill="#000000" points="180,250 180,234 203,234 203,250"/>
<polygon fill="#000000" points="180,273 180,257 203,257 203,273"/>
<polygon fill="#007bff" points="227,234 235,234 235,226 274,226 274,234 282,234 282,273 274,273 274,281 235,281 235,273 227,273"/>
<polygon fill="#000000" points="243,273 243,234 266,234 266,273"/>
<polygon fill="#007bff" points="290,226 306,226 306,250 313,250 313,242 321,242 321,234 329,234 329,226 345,226 345,234 337,234
337,242 329,242 329,250 322,250 322,257 329,257 329,265 337,265 337,273 345,273 345,281 329,281 329,273 321,273 321,266 313,266
313,257 306,257 306,281 290,281"/>
<polygon fill="#007bff" points="353,234 361,234 361,226 400,226 400,234 408,234 408,273 400,273 400,281 361,281 361,273 353,273"/>
<polygon fill="#000000" points="369,273 369,234 392,234 392,273"/>
<polygon fill="#007bff" points="416,234 424,234 424,226 463,226 463,234 471,234 471,242 455,242 455,234 432,234 432,250 463,250
463,257 471,257 471,273 463,273 463,281 424,281 424,273 416,273 416,265 432,265 432,273 455,273 455,257 424,257 424,250 416,250"/>
</svg>
