<?xml version="1.0" encoding="utf-8"?>
<!DOCTYPE svg PUBLIC "-//W3C//DTD SVG 1.1//EN" "http://www.w3.org/Graphics/SVG/1.1/DTD/svg11.dtd">
<svg version="1.1" id="Icon" xmlns="http://www.w3.org/2000/svg" xmlns:xlink="http://www.w3.org/1999/xlink" x="0px" y="0px"
	 width="50px" height="50px" viewBox="0 0 50 50" enable-background="new 0 0 50 50" xml:space="preserve">
<polygon fill="#ffffff" points="15,12 16,12 16,11 17,11 17,10 18,10 18,9 19,9 19,8 20,8 20,7 21,7 21,6 22,6 22,5 23,5 23,4 24,4
24,3 26,3 26,4 27,4 27,5 28,5 28,6 29,6 29,7 30,7 30,8 31,8 31,9 32,9 32,10 33,10 33,11 34,11 34,12 35,12 35,15 34,15 34,16 32,16
32,15 31,15 31,14 30,14 30,13 29,13 29,12 28,12 28,27 27,27 27,28 23,28 23,27 22,27 22,12 21,12 21,13 20,13 20,14 19,14 19,15 18,15
18,16 16,16 16,15 15,15"/>
<polygon fill="#007bff" points="16,12 17,12 17,11 18,11 18,10 19,10 19,9 20,9 20,8 21,8 21,7 22,7 22,6 23,6 23,5 24,5 24,4 26,4 26,5
27,5 27,6 28,6 28,7 29,7 29,8 30,8 30,9 31,9 31,10 32,10 32,11 33,11 33,12 34,12 34,15 32,15 32,14 31,14 31,13 30,13 30,12 29,12
29,11 28,11 28,10 27,10 27,27 23,27 23,10 22,10 22,11 21,11 21,12 20,12 20,13 19,13 19,14 18,14 18,15 16,15 "/>
<polygon fill="#ffffff" points="6,20 7,20 7,19 10,19 10,20 11,20 11,38 39,38 39,20 40,20 40,19 43,19 43,20 44,20 44,42 43,42 43,43 7,43 7,42 6,42"/>
<polygon fill="#007bff" points="7,20 10,20 10,39 40,39 40,20 43,20 43,42 7,42"/>
</svg>
