<?xml version="1.0" encoding="utf-8"?>
<!DOCTYPE svg PUBLIC "-//W3C//DTD SVG 1.1//EN" "http://www.w3.org/Graphics/SVG/1.1/DTD/svg11.dtd">
<svg version="1.1" id="Icon" xmlns="http://www.w3.org/2000/svg" xmlns:xlink="http://www.w3.org/1999/xlink" x="0px" y="0px"
	 width="50px" height="50px" viewBox="0 0 50 50" enable-background="new 0 0 50 50" xml:space="preserve">
<polygon fill="#ffffff" points="1,19 2,19 2,16 3,16 3,14 4,14 4,12 5,12 5,10 6,10 6,9 7,9 7,8 8,8 8,7 9,7 9,6 10,6 10,5 12,5 12,4 14,4 14,3
16,3 16,2 19,2 19,1 30,1 30,2 33,2 33,3 35,3 35,4 37,4 37,5 39,5 39,6 40,6 40,7 41,7 41,8 42,8 42,9 43,9 43,10 44,10 44,12 45,12 45,14 46,14
46,16 47,16 47,19 48,19 48,31 47,31 47,34 46,34 46,37 45,37 45,38 44,38 44,40 43,40 43,41 42,41 42,42 41,42 41,43 40,43 40,44 39,44 39,45 37,45
37,46 36,46 36,47 33,47 33,48 30,48 30,49 19,49 19,48 16,48 16,47 14,47 14,46 12,46 12,45 10,45 10,44 9,44 9,43 8,43 8,42 7,42 7,41 6,41 6,40
5,40 5,38 4,38 4,36 3,36 3,34 2,34 2,31 1,31"/>
<polygon fill="#000000" points="2,20 3,20 3,17 4,17 4,15 5,15 5,13 6,13 6,11 7,11 7,10 8,10 8,9 9,9 9,8 10,8 10,7 11,7 11,6 13,6 13,5 15,5
15,4 17,4 17,3 20,3 20,2 29,2 29,3 32,3 32,4 34,4 34,5 36,5 36,6 38,6 38,7 39,7 39,8 40,8 40,9 41,9 41,10 42,10 42,11 43,11 43,13 44,13 44,15
45,15 45,17 46,17 46,20 47,20 47,30 46,30 46,33 45,33 45,36 44,36 44,37 43,37 43,39 42,39 42,40 41,40 41,41 40,41 40,42 39,42 39,43 38,43 38,44
36,44 36,45 35,45 35,46 32,46 32,47 29,47 29,48 20,48 20,47 17,47 17,46 15,46 15,45 13,45 13,44 11,44 11,43 10,43 10,42 9,42 9,41 8,41 8,40
7,40 7,39 6,39 6,37 5,37 5,35 4,35 4,33 3,33 3,30 2,30"/>
<polygon fill="#fff200" points="5,21 6,21 6,17 7,17 7,15 8,15 8,14 9,14 9,13 10,13 10,11 11,11 11,10 12,10 12,9 14,9 14,8 15,8 15,7 17,7 17,6
20,6 20,5 29,5 29,6 32,6 32,7 34,7 34,8 35,8 35,9 37,9 37,10 38,10 38,11 39,11 39,12 40,12 40,14 41,14 41,15 42,15 42,17 43,17 43,21 44,21 44,29
43,29 43,33 42,33 42,35 41,35 41,36 40,36 40,38 39,38 39,39 38,39 38,40 37,40 37,41 36,41 36,42 34,42 34,43 32,43 32,44 29,44 29,45 20,45 20,44
17,44 17,43 15,43 15,42 14,42 14,41 12,41 12,40 11,40 11,39 10,39 10,38 9,38 9,36 8,36 8,35 7,35 7,33 6,33 6,29 5,29"/>
<polygon fill="#000000" points="7,17 7,15 8,15 8,14 41,14 41,15 42,15 42,17 41,17 41,20 40,20 40,23 38,23 38,24 36,24 36,25 30,25 30,24 28,24
28,23 26,23 26,20 25,20 25,17 23,17 23,20 22,20 22,23 21,23 21,24 19,24 19,25 13,25 13,24 11,24 11,23 9,23 9,20 8,20 8,17"/>
<polygon fill="#000000" points="18,33 29,33 29,32 31,32 31,31 32,31 32,30 34,30 34,29 36,29 36,30 37,30 37,32 35,32 35,33 33,33 33,34 31,34
31,35 29,35 29,36 18,36"/>
<polygon fill="#ffffff" points="10,17 14,17 14,19 12,19 12,21 10,21"/>
<polygon fill="#ffffff" points="27,17 31,17 31,19 29,19 29,21 27,21"/>
</svg>
