<?xml version="1.0" encoding="utf-8"?>
<!DOCTYPE svg PUBLIC "-//W3C//DTD SVG 1.1//EN" "http://www.w3.org/Graphics/SVG/1.1/DTD/svg11.dtd">
<svg version="1.1" id="Icon" xmlns="http://www.w3.org/2000/svg" xmlns:xlink="http://www.w3.org/1999/xlink" x="0px" y="0px"
	 width="50px" height="50px" viewBox="0 0 50 50" enable-background="new 0 0 50 50" xml:space="preserve">
<polygon fill="#ffffff" points="22,4 23,4 23,3 27,3 27,4 28,4 28,19 29,19 29,18 30,18 30,17 31,17 31,16 32,16 32,15 34,15 34,16 35,16 35,19
34,19 34,20 33,20 33,21 32,21 32,22 31,22 31,23 30,23 30,24 29,24 29,25 28,25 28,26 27,26 27,27 26,27 26,28 24,28 24,27 23,27 23,26 22,26 22,25
21,25 21,24 20,24 20,23 19,23 19,22 18,22 18,21 17,21 17,20 16,20 16,19 15,19 15,16 16,16 16,15 18,15 18,16 19,16 19,17 20,17 20,18 21,18 21,19
22,19"/>
<polygon fill="#007bff" points="23,4 27,4 27,21 28,21 28,20 29,20 29,19 30,19 30,18 31,18 31,17 32,17 32,16 34,16 34,19 33,19 33,20 32,20 32,21
31,21 31,22 30,22 30,23 29,23 29,24 28,24 28,25 27,25 27,26 26,26 26,27 24,27 24,26 23,26 23,25 22,25 22,24 21,24 21,23 20,23 20,22 19,22 19,21
18,21 18,20 17,20 17,19 16,19 16,16 18,16 18,17 19,17 19,18 20,18 20,19 21,19 21,20 22,20 22,21 23,21"/>
<polygon fill="#ffffff" points="6,20 7,20 7,19 10,19 10,20 11,20 11,38 39,38 39,20 40,20 40,19 43,19 43,20 44,20 44,42 43,42 43,43 7,43 7,42 6,42"/>
<polygon fill="#007bff" points="7,20 10,20 10,39 40,39 40,20 43,20 43,42 7,42"/>
</svg>
